<?xml version="1.0" encoding="utf-8"?>
<!-- Generator: Adobe Illustrator 26.0.3, SVG Export Plug-In . SVG Version: 6.00 Build 0)  -->
<svg version="1.1" xmlns="http://www.w3.org/2000/svg" xmlns:xlink="http://www.w3.org/1999/xlink" x="0px" y="0px"
	 viewBox="0 0 5000 4000" style="enable-background:new 0 0 5000 4000;" xml:space="preserve">
<style type="text/css">
	.st0{fill:#A0D8EA;}
	.st1{fill:#B5B5B6;}
	.st2{fill:#F1A11E;}
	.st3{fill:#F6C31F;}
	.st4{fill:#9FA0A0;}
	.st5{fill:#EA5C67;}
	.st6{fill:#EA5A4F;}
	.st7{fill:#FFFFFF;}
	.st8{fill:#A48B78;}
	.st9{fill:#7A6A56;}
	.st10{fill:#673A1B;}
	.st11{fill:#727171;}
	.st12{fill:#3E3A39;}
	.st13{fill:#F7F8F8;}
	.st14{fill:none;}
</style>
<g id="ƒŒƒCƒ_x201E__x5B__x5F_2">
	<g>
		<g>
			<path class="st0" d="M4251.1,3109.23v-30.92c134.71,0,244.31-109.6,244.31-244.31h30.93c0,73.57-28.61,142.71-80.57,194.66
				C4393.81,3080.62,4324.68,3109.23,4251.1,3109.23z"/>
			<path class="st0" d="M4283.57,3243.73v-30.92c190.97,0,346.34-155.37,346.34-346.34h30.92c0,50.96-9.97,100.4-29.63,146.92
				c-18.99,44.94-46.18,85.28-80.81,119.91c-34.63,34.63-74.97,61.82-119.91,80.81C4383.96,3233.76,4334.53,3243.73,4283.57,3243.73
				z"/>
			<path class="st0" d="M4283.57,3401.41v-30.92c277.92,0,504.03-226.11,504.03-504.03h30.93c0,72.27-14.13,142.36-42.01,208.33
				c-26.93,63.72-65.48,120.92-114.59,170.03s-106.31,87.66-170.03,114.59C4425.93,3387.28,4355.84,3401.41,4283.57,3401.41z"/>
		</g>
		<g>
			<path class="st0" d="M748.9,3109.23v-30.92c-134.71,0-244.31-109.6-244.31-244.31h-30.93c0,73.57,28.61,142.71,80.57,194.66
				C606.19,3080.62,675.32,3109.23,748.9,3109.23z"/>
			<path class="st0" d="M716.43,3243.73v-30.92c-190.97,0-346.34-155.37-346.34-346.34h-30.93c0,50.96,9.97,100.4,29.63,146.92
				c18.99,44.94,46.18,85.28,80.81,119.91c34.63,34.63,74.97,61.82,119.91,80.81C616.04,3233.76,665.47,3243.73,716.43,3243.73z"/>
			<path class="st0" d="M716.43,3401.41v-30.92c-277.92,0-504.03-226.11-504.03-504.03h-30.93c0,72.27,14.13,142.36,42.01,208.33
				c26.93,63.72,65.48,120.92,114.59,170.03c49.11,49.11,106.31,87.66,170.03,114.59C574.07,3387.28,644.16,3401.41,716.43,3401.41z
				"/>
		</g>
	</g>
	<g>
		<g>
			<g>
				<rect x="1187.99" y="2473.02" class="st1" width="190" height="202"/>
				<g>
					<path class="st2" d="M755.68,2526.02h1051.17c52.1,0,95.95-37,95.95-90H661.22C661.22,2489.02,703.58,2526.02,755.68,2526.02z"
						/>
					<path class="st3" d="M1980.99,2417.76c0,14.5-11.76,26.26-26.26,26.26H610.25c-14.5,0-26.26-11.76-26.26-26.26v-7.48
						c0-14.5,11.76-26.26,26.26-26.26h1344.48c14.5,0,26.26,11.76,26.26,26.26V2417.76z"/>
				</g>
				<g>
					<path class="st4" d="M755.68,2526.02h1051.17c52.1,0,95.95-37,95.95-90H661.22C661.22,2489.02,703.58,2526.02,755.68,2526.02z"
						/>
					<path class="st1" d="M1980.99,2417.76c0,14.5-11.76,26.26-26.26,26.26H610.25c-14.5,0-26.26-11.76-26.26-26.26v-7.48
						c0-14.5,11.76-26.26,26.26-26.26h1344.48c14.5,0,26.26,11.76,26.26,26.26V2417.76z"/>
				</g>
			</g>
			<g>
				<rect x="3622.99" y="2473.02" class="st1" width="190" height="202"/>
				<g>
					<path class="st2" d="M3191.55,2526.02h1051.17c52.1,0,95.95-37,95.95-90H3097.09
						C3097.09,2489.02,3139.45,2526.02,3191.55,2526.02z"/>
					<path class="st3" d="M4416.99,2417.76c0,14.5-11.76,26.26-26.26,26.26H3046.25c-14.5,0-26.26-11.76-26.26-26.26v-7.48
						c0-14.5,11.76-26.26,26.26-26.26h1344.48c14.5,0,26.26,11.76,26.26,26.26V2417.76z"/>
				</g>
				<g>
					<path class="st4" d="M3191.55,2526.02h1051.17c52.1,0,95.95-37,95.95-90H3097.09
						C3097.09,2489.02,3139.45,2526.02,3191.55,2526.02z"/>
					<path class="st1" d="M4416.99,2417.76c0,14.5-11.76,26.26-26.26,26.26H3046.25c-14.5,0-26.26-11.76-26.26-26.26v-7.48
						c0-14.5,11.76-26.26,26.26-26.26h1344.48c14.5,0,26.26,11.76,26.26,26.26V2417.76z"/>
				</g>
			</g>
			<g>
				<g>
					<path class="st5" d="M4290.59,1599.02c-106.73-234.47-397.42-176.12-568.98-2.47c-171.56-173.64-462.26-232-568.98,2.47
						c-139.73,306.98,307.87,656.57,516.5,741.8l52.49,20.57l52.49-20.57C3982.73,2255.58,4430.32,1906,4290.59,1599.02z"/>
					<g>
						<path class="st6" d="M3774.1,2340.82c208.63-85.24,656.22-434.82,516.5-741.8c-64.6-141.91-196.59-176.53-328.77-143.26
							c140.01,133.53,301.8,432.04-249.05,902.17l8.84,3.47L3774.1,2340.82z"/>
					</g>
				</g>
				<path class="st7" d="M3222.57,1710.08c-15.38,0-28.11-12.18-28.67-27.68c-1.66-46.37,16.19-91.78,49-124.58
					c29.39-29.4,68.43-46.76,109.91-48.88c15.85-0.82,29.33,11.37,30.14,27.2c0.81,15.83-11.36,29.33-27.2,30.14
					c-27.26,1.4-52.93,12.81-72.25,32.14c-21.88,21.89-33.32,50.98-32.21,81.93c0.57,15.85-11.81,29.15-27.66,29.72
					C3223.27,1710.07,3222.92,1710.08,3222.57,1710.08z"/>
				<path class="st7" d="M3264.97,1758.71c0,17.07-13.84,30.91-30.91,30.91c-17.08,0-30.92-13.84-30.92-30.91
					c0-17.07,13.84-30.92,30.92-30.92C3251.13,1727.79,3264.97,1741.64,3264.97,1758.71z"/>
			</g>
			<g>
				<g>
					<path class="st8" d="M1421.22,1434.14l111.77-290.48l-118.01,48.96l-64.39-130.48l-174.23,135.44L1018.62,1141l151.49,291.84
						c-215.59,106.47-452.44,379.89-453.63,608.21c-1.52,293.19,231.39,318.64,543.7,320.26c312.31,1.62,585.77-21.21,587.29-314.39
						C1848.65,1818.93,1636.04,1543.14,1421.22,1434.14z"/>
					<path class="st9" d="M1410.46,1216.52l102.19-45.18l-91.29,234.12l-15.97,26.03c0,0,605.97,447.86,358.76,774.56
						c-129.06,170.58-270.77,105.5-248.41,88.78c302.11-225.86-180.84-809.51-180.84-809.51L1410.46,1216.52z"/>
					<path class="st10" d="M1283.05,1467.3c-75.13-0.39-120.03-10.92-122.78-11.59c-18.95-4.58-30.14-21.89-25.01-38.68
						c5.14-16.74,24.64-26.63,43.56-22.11c1.48,0.35,90.21,20.47,227.35,0.58c19.37-2.8,37.68,8.83,40.87,25.99
						c3.21,17.17-9.91,33.37-29.28,36.18C1366.23,1465.14,1320.82,1467.5,1283.05,1467.3z"/>
					<path class="st10" d="M1282.95,1486.65c-75.13-0.39-120.03-10.93-122.77-11.59c-18.95-4.58-30.14-21.9-25.01-38.69
						c5.14-16.73,24.64-26.63,43.55-22.11c1.29,0.3,90.08,20.5,227.35,0.58c19.37-2.81,37.69,8.83,40.88,25.99
						c3.21,17.17-9.91,33.37-29.28,36.16C1366.13,1484.48,1320.72,1486.84,1282.95,1486.65z"/>
				</g>
				<path class="st7" d="M1419.29,1951.48c-21.21-20.76-57.07-35.8-106.65-44.77l0.56-107.91c13.46,3.35,24.34,9.19,33.02,17.69
					c9.36,9.19,14.04,27.05,13.91,53.1l-0.05,9.04l87.55,0.46l0.05-9.04c0.23-44.33-13.25-80.1-40.06-106.34
					c-19.85-19.39-51.46-31.24-94.05-35.29l0.21-39.5l-66.48-0.34l-0.21,39.83c-40.08,4.95-71.11,17.74-92.33,38.07
					c-22.87,21.92-34.55,49.33-34.71,81.47c-0.15,29.34,11.18,56.12,33.66,79.56c20.98,21.9,51.94,36.97,92.12,44.84l-0.59,113.54
					c-14.17-1.72-24.81-7.13-32.4-16.44c-11.15-13.33-16.73-35.55-16.57-66.03l0.05-9.04l-87.55-0.45l-0.05,9.04
					c-0.26,49.77,12.5,87.6,37.91,112.44c23.63,23.15,56.65,37.66,98.24,43.17l-0.21,39.81l66.48,0.35l0.21-39.62
					c49.56-4.74,85.55-17.58,107.08-38.21c24.28-23.27,36.66-51.36,36.83-83.5C1455.41,2003.94,1443.32,1975.03,1419.29,1951.48z
					 M1371.91,2034.92c-0.08,15.46-4.78,27.44-14.36,36.62c-8.17,7.83-23.56,12.72-45.84,14.57l0.54-104.43
					c21.09,3.26,36.43,9.47,45.66,18.5C1367.41,2009.5,1371.99,2020.86,1371.91,2034.92z M1201.31,1842.24
					c0.08-16.15,5.15-37.63,45.42-44.4l-0.51,97.87C1215.89,1886.02,1201.17,1868.44,1201.31,1842.24z"/>
			</g>
		</g>
		<path class="st11" d="M2559.03,2155.02h-122.76c-50.83,0-85.28,33.76-85.28,84.62v1072.38h300V2239.64
			C2650.99,2188.78,2609.87,2155.02,2559.03,2155.02z"/>
		<path class="st4" d="M2663.12,3201.02h-310.38c-68.57,0-130.74,61.62-130.74,130.19v79.81h558v-79.81
			C2779.99,3262.63,2731.7,3201.02,2663.12,3201.02z"/>
		<path class="st1" d="M3186.37,3336.02H1810.38c-130.26,0-231.39,109.07-231.39,239.33v15.67h1843v-15.67
			C3421.99,3445.09,3316.63,3336.02,3186.37,3336.02z"/>
		<path class="st4" d="M4097.99,2682.74c0,20.57-16.37,42.28-36.95,42.28H937.52c-20.58,0-34.53-21.71-34.53-42.28V2669
			c0-20.57,13.96-37.98,34.53-37.98h3123.52c20.58,0,36.95,17.42,36.95,37.98V2682.74z"/>
		<path class="st12" d="M2747.58,2674.4c0,136.56-110.7,247.28-247.28,247.28c-136.58,0-247.28-110.71-247.28-247.28
			c0-136.58,110.7-247.29,247.28-247.29C2636.88,2427.12,2747.58,2537.83,2747.58,2674.4z"/>
		<path class="st13" d="M2655.49,2674.4c0,85.71-69.46,155.19-155.17,155.19s-155.19-69.48-155.19-155.19
			c0-85.72,69.48-155.19,155.19-155.19S2655.49,2588.69,2655.49,2674.4z"/>
	</g>
</g>
<g id="line">
	<rect x="21.99" y="40.02" class="st14" width="4950" height="3928"/>
</g>
</svg>
